<svg id="Layer_1" data-name="Layer 1" xmlns="http://www.w3.org/2000/svg" viewBox="0 0 29.32 36.91"><defs><style>.cls-1{fill:blue;}.cls-2{fill:#fff;}.cls-3{fill:none;stroke:blue;stroke-width:0.5px;}</style></defs><path class="cls-1" d="M230.44,211.24c0,1.94,0,3.87,0,5.8,0,2.3,0,4.6,0,6.89a9.65,9.65,0,0,1-4.62,8.43,10,10,0,0,1-8.2,1.14,11.41,11.41,0,0,1-5.35-3.07c-3.24-3.24-6.47-6.49-9.73-9.71a2.92,2.92,0,0,1,1.17-4.91,3.69,3.69,0,0,1,2.69.29c1.28.62,2.55,1.27,3.82,1.9l.5.24V200.72a3.06,3.06,0,0,1,2.24-3.13l.37-.1h.85a8.56,8.56,0,0,1,1.41.64,2.91,2.91,0,0,1,1.21,2.55v4.77a3.13,3.13,0,0,1,2.57-.19,3,3,0,0,1,1.79,1.81,3.12,3.12,0,0,1,4.58,1.52,3.06,3.06,0,0,1,4.71,2.65Zm-1.55,13c.05-4.34,0-8.69,0-13a1.68,1.68,0,0,0-.05-.45,1.51,1.51,0,0,0-1.66-1.09,1.48,1.48,0,0,0-1.3,1.42c0,1.17,0,2.34,0,3.52a2.54,2.54,0,0,1,0,.39.75.75,0,0,1-.75.71.77.77,0,0,1-.77-.73,2.62,2.62,0,0,1,0-.28c0-1.66,0-3.32,0-5a1.47,1.47,0,0,0-.77-1.38,1.49,1.49,0,0,0-2.25,1.27c0,1.71,0,3.42,0,5.12a1.46,1.46,0,0,1,0,.42.74.74,0,0,1-.73.57.73.73,0,0,1-.71-.58,2.32,2.32,0,0,1,0-.53v-6.36a1.52,1.52,0,1,0-3,0c0,.21,0,.42,0,.64,0,2,0,3.93,0,5.9a1.3,1.3,0,0,1-.29.72.63.63,0,0,1-.79.11.82.82,0,0,1-.45-.82c0-2,0-4,0-5.93,0-2.77,0-5.52,0-8.28a1.48,1.48,0,0,0-1.17-1.53,1.49,1.49,0,0,0-1.84,1.53V219.3c0,.81-.53,1.13-1.26.79l-.1-.05c-1.61-.81-3.22-1.64-4.85-2.42a4.55,4.55,0,0,0-1.35-.39,1.31,1.31,0,0,0-1.5,1.58,2,2,0,0,0,.56.94q4.74,4.78,9.52,9.53a10.13,10.13,0,0,0,6.79,3.07A8.32,8.32,0,0,0,228.89,224.22Z" transform="translate(-201.37 -197.24)"/><path class="cls-2" d="M228.9,211.18c0,4.35,0,8.7,0,13a8.32,8.32,0,0,1-8.84,8.13,10.13,10.13,0,0,1-6.79-3.07q-4.77-4.75-9.52-9.53a2,2,0,0,1-.56-.94,1.31,1.31,0,0,1,1.5-1.58,4.55,4.55,0,0,1,1.35.39c1.63.78,3.24,1.61,4.85,2.42l.1.05c.73.34,1.25,0,1.26-.79V200.58a1.49,1.49,0,0,1,1.84-1.53,1.48,1.48,0,0,1,1.17,1.53c0,2.76,0,5.51,0,8.28,0,2,0,3.95,0,5.93a.82.82,0,0,0,.45.82.63.63,0,0,0,.79-.11,1.3,1.3,0,0,0,.29-.72c0-2,0-3.94,0-5.9,0-.22,0-.43,0-.64a1.52,1.52,0,1,1,3,0v6.36a2.32,2.32,0,0,0,0,.53.73.73,0,0,0,.71.58.74.74,0,0,0,.73-.57,1.46,1.46,0,0,0,0-.42c0-1.7,0-3.41,0-5.12a1.49,1.49,0,0,1,2.25-1.27,1.47,1.47,0,0,1,.77,1.38c0,1.66,0,3.32,0,5a2.62,2.62,0,0,0,0,.28.77.77,0,0,0,.77.73.75.75,0,0,0,.75-.71,2.54,2.54,0,0,0,0-.39c0-1.18,0-2.35,0-3.52a1.48,1.48,0,0,1,1.3-1.42,1.51,1.51,0,0,1,1.66,1.09A1.68,1.68,0,0,1,228.9,211.18Z" transform="translate(-201.37 -197.24)"/><path class="cls-3" d="M214.17,197.49a8.56,8.56,0,0,1,1.41.64,2.91,2.91,0,0,1,1.21,2.55v4.77a3.13,3.13,0,0,1,2.57-.19,3,3,0,0,1,1.79,1.81,3.12,3.12,0,0,1,4.58,1.52,3.06,3.06,0,0,1,4.71,2.65c0,1.94,0,3.87,0,5.8,0,2.3,0,4.6,0,6.89a9.65,9.65,0,0,1-4.62,8.43,10,10,0,0,1-8.2,1.14,11.41,11.41,0,0,1-5.35-3.07c-3.24-3.24-6.47-6.49-9.73-9.71a2.92,2.92,0,0,1,1.17-4.91,3.69,3.69,0,0,1,2.69.29c1.28.62,2.55,1.27,3.82,1.9l.5.24V200.72a3.06,3.06,0,0,1,2.24-3.13l.37-.1Z" transform="translate(-201.37 -197.24)"/><path class="cls-3" d="M212.24,209.89v9.41c0,.81-.53,1.13-1.26.79l-.1-.05c-1.61-.81-3.22-1.64-4.85-2.42a4.55,4.55,0,0,0-1.35-.39,1.31,1.31,0,0,0-1.5,1.58,2,2,0,0,0,.56.94q4.74,4.78,9.52,9.53a10.13,10.13,0,0,0,6.79,3.07,8.32,8.32,0,0,0,8.84-8.13c.05-4.34,0-8.69,0-13a1.68,1.68,0,0,0-.05-.45,1.51,1.51,0,0,0-1.66-1.09,1.48,1.48,0,0,0-1.3,1.42c0,1.17,0,2.34,0,3.52a2.54,2.54,0,0,1,0,.39.75.75,0,0,1-.75.71.77.77,0,0,1-.77-.73,2.62,2.62,0,0,1,0-.28c0-1.66,0-3.32,0-5a1.47,1.47,0,0,0-.77-1.38,1.49,1.49,0,0,0-2.25,1.27c0,1.71,0,3.42,0,5.12a1.46,1.46,0,0,1,0,.42.74.74,0,0,1-.73.57.73.73,0,0,1-.71-.58,2.32,2.32,0,0,1,0-.53v-6.36a1.52,1.52,0,1,0-3,0c0,.21,0,.42,0,.64,0,2,0,3.93,0,5.9a1.3,1.3,0,0,1-.29.72.63.63,0,0,1-.79.11.82.82,0,0,1-.45-.82c0-2,0-4,0-5.93,0-2.77,0-5.52,0-8.28a1.48,1.48,0,0,0-1.17-1.53,1.49,1.49,0,0,0-1.84,1.53Z" transform="translate(-201.37 -197.24)"/></svg>